<svg width="22" height="22" viewBox="0 0 22 22" fill="none" xmlns="http://www.w3.org/2000/svg">
<path d="M20.1667 14.6665V19.2499C20.1667 19.493 20.0701 19.7262 19.8982 19.8981C19.7263 20.07 19.4931 20.1666 19.25 20.1666H2.75C2.50688 20.1666 2.27373 20.07 2.10182 19.8981C1.92991 19.7262 1.83333 19.493 1.83333 19.2499V14.6665H0V19.2499C0 19.9793 0.289731 20.6787 0.805456 21.1945C1.32118 21.7102 2.02065 21.9999 2.75 21.9999H19.25C19.9793 21.9999 20.6788 21.7102 21.1945 21.1945C21.7103 20.6787 22 19.9793 22 19.2499V14.6665H20.1667Z" fill="#374957"/>
<path d="M10.9695 1.04256e-05C10.6085 -0.000984727 10.2508 0.0692721 9.91705 0.206754C9.58326 0.344236 9.27988 0.546241 9.0243 0.80119L5.43188 4.39366L6.72805 5.68985L10.0592 2.35955L10.0831 17.417H11.9164L11.8926 2.37238L15.21 5.68985L16.5061 4.39366L12.9137 0.80119C12.6583 0.546269 12.3551 0.344274 12.0215 0.20679C11.6878 0.0693055 11.3303 -0.000964208 10.9695 1.04256e-05V1.04256e-05Z" fill="#374957"/>
</svg>
