<svg width="96" height="96" viewBox="0 0 96 96" fill="none" xmlns="http://www.w3.org/2000/svg">
<circle opacity="0.96" cx="48" cy="48" r="48" fill="url(#paint0_linear_7795_236)"/>
<g clip-path="url(#clip0_7795_236)">
<path d="M74.6667 64V70.896L66.5067 62.736C72.168 56.7493 77.3333 49.424 77.3333 42.5333C77.4814 38.4873 76.0218 34.5472 73.2735 31.5741C70.5253 28.6009 66.7118 26.8366 62.6667 26.6667C60.3001 26.7922 57.9922 27.4495 55.9146 28.5899C53.8371 29.7302 52.0433 31.3242 50.6667 33.2533C49.2902 31.3241 47.4964 29.73 45.4188 28.5896C43.3413 27.4493 41.0333 26.792 38.6667 26.6667C36.3791 26.6717 34.1297 27.2522 32.1253 28.3547L19.7707 16L16 19.7707L27.9573 31.7333C25.3854 34.7421 23.9809 38.5752 24 42.5333C24 56.9333 46.5547 73.3253 49.1253 75.1467L50.6667 76.2373L52.208 75.1467C55.8921 72.4871 59.404 69.5969 62.7227 66.4933L70.896 74.6667H64V80H74.6667C76.0812 80 77.4377 79.4381 78.4379 78.4379C79.4381 77.4377 80 76.0812 80 74.6667V64H74.6667ZM50.6667 69.6773C40.112 61.8667 29.3333 50.44 29.3333 42.5333C29.1872 39.902 30.0857 37.3194 31.8334 35.3469C33.5812 33.3744 36.0369 32.1716 38.6667 32C44.5333 32 48.248 39.2 48.28 39.2533L50.6667 43.9787L53.0667 39.2613C53.0853 39.2 56.8 32 62.6667 32C65.2965 32.1716 67.7522 33.3744 69.4999 35.3469C71.2477 37.3194 72.1462 39.902 72 42.5333C72 50.4373 61.2187 61.8667 50.6667 69.6773Z" fill="#D85D6F"/>
</g>
<defs>
<linearGradient id="paint0_linear_7795_236" x1="48" y1="0" x2="48" y2="96" gradientUnits="userSpaceOnUse">
<stop stop-color="#D85D6F" stop-opacity="0.5"/>
<stop offset="1" stop-color="#D85D6F" stop-opacity="0.25"/>
</linearGradient>
<clipPath id="clip0_7795_236">
<rect width="64" height="64" fill="white" transform="translate(16 16)"/>
</clipPath>
</defs>
</svg>
