<svg width="96" height="96" viewBox="0 0 96 96" fill="none" xmlns="http://www.w3.org/2000/svg">
<g clip-path="url(#clip0_7795_270)">
<path d="M77.1013 16.1307C75.6187 16.2 40.6987 17.92 28.9653 29.6533C24.3414 34.2904 21.5996 40.4762 21.2691 47.0163C20.9387 53.5565 23.0431 59.9871 27.176 65.0667L16 76.2427L19.7733 80L30.9467 68.8427C36.0265 72.9766 42.458 75.0813 48.9989 74.7504C55.5399 74.4194 61.7261 71.6762 66.3627 67.0507C78.3307 55.0853 79.8293 20.384 79.8853 18.9013L80 16L77.1013 16.1307ZM62.592 63.28C58.9558 66.9061 54.1242 69.085 48.9993 69.4098C43.8743 69.7347 38.8063 68.1833 34.7413 65.0453L60.44 39.3467L56.6693 35.576L30.9707 61.2747C27.8327 57.2097 26.2813 52.1417 26.6062 47.0167C26.931 41.8918 29.1099 37.0602 32.736 33.424C41.2133 24.9467 65.8213 22.3253 74.376 21.6587C73.752 30.1733 71.2427 54.6293 62.592 63.28Z" fill="#775B48"/>
</g>
<circle opacity="0.96" cx="48" cy="48" r="48" fill="url(#paint0_linear_7795_270)"/>
<defs>
<linearGradient id="paint0_linear_7795_270" x1="79.5" y1="11.5" x2="18" y2="85" gradientUnits="userSpaceOnUse">
<stop stop-color="#775B48" stop-opacity="0.5"/>
<stop offset="1" stop-color="#775B48" stop-opacity="0.25"/>
</linearGradient>
<clipPath id="clip0_7795_270">
<rect width="64" height="64" fill="white" transform="translate(16 16)"/>
</clipPath>
</defs>
</svg>
