<svg width="193" height="32" viewBox="0 0 193 32" fill="none" xmlns="http://www.w3.org/2000/svg">
<path d="M15.6667 1.25589C16.0623 0.65971 16.9377 0.65971 17.3333 1.25589L21.8427 8.05239C21.9756 8.25266 22.1761 8.39837 22.4076 8.46286L30.265 10.6513C30.9542 10.8433 31.2247 11.6759 30.78 12.2363L25.7096 18.6253C25.5602 18.8135 25.4836 19.0493 25.4938 19.2894L25.8405 27.4385C25.8709 28.1533 25.1627 28.6678 24.4922 28.418L16.8492 25.5701C16.624 25.4862 16.376 25.4862 16.1508 25.5701L8.50776 28.418C7.83732 28.6678 7.12909 28.1533 7.1595 27.4385L7.50619 19.2894C7.5164 19.0493 7.4398 18.8135 7.29039 18.6252L2.22002 12.2363C1.77526 11.6759 2.04578 10.8433 2.73501 10.6513L10.5924 8.46286C10.8239 8.39837 11.0244 8.25266 11.1573 8.05239L15.6667 1.25589Z" fill="#D85D6F"/>
<path d="M135.667 1.25589C136.062 0.65971 136.938 0.65971 137.333 1.25589L141.843 8.05239C141.976 8.25266 142.176 8.39837 142.408 8.46286L150.265 10.6513C150.954 10.8433 151.225 11.6759 150.78 12.2363L145.71 18.6253C145.56 18.8135 145.484 19.0493 145.494 19.2894L145.841 27.4385C145.871 28.1533 145.163 28.6678 144.492 28.418L136.849 25.5701C136.624 25.4862 136.376 25.4862 136.151 25.5701L128.508 28.418C127.837 28.6678 127.129 28.1533 127.159 27.4385L127.506 19.2894C127.516 19.0493 127.44 18.8135 127.29 18.6252L122.22 12.2363C121.775 11.6759 122.046 10.8433 122.735 10.6513L130.592 8.46286C130.824 8.39837 131.024 8.25266 131.157 8.05239L135.667 1.25589Z" fill="#D85D6F"/>
<path d="M175.667 1.25589C176.062 0.65971 176.938 0.65971 177.333 1.25589L181.843 8.05239C181.976 8.25266 182.176 8.39837 182.408 8.46286L190.265 10.6513C190.954 10.8433 191.225 11.6759 190.78 12.2363L185.71 18.6253C185.56 18.8135 185.484 19.0493 185.494 19.2894L185.841 27.4385C185.871 28.1533 185.163 28.6678 184.492 28.418L176.849 25.5701C176.624 25.4862 176.376 25.4862 176.151 25.5701L168.508 28.418C167.837 28.6678 167.129 28.1533 167.159 27.4385L167.506 19.2894C167.516 19.0493 167.44 18.8135 167.29 18.6252L162.22 12.2363C161.775 11.6759 162.046 10.8433 162.735 10.6513L170.592 8.46286C170.824 8.39837 171.024 8.25266 171.157 8.05239L175.667 1.25589Z" fill="#6C7486"/>
<path d="M55.6667 1.25589C56.0623 0.65971 56.9377 0.65971 57.3333 1.25589L61.8427 8.05239C61.9756 8.25266 62.1761 8.39837 62.4076 8.46286L70.265 10.6513C70.9542 10.8433 71.2247 11.6759 70.78 12.2363L65.7096 18.6253C65.5602 18.8135 65.4836 19.0493 65.4938 19.2894L65.8405 27.4385C65.8709 28.1533 65.1627 28.6678 64.4922 28.418L56.8492 25.5701C56.624 25.4862 56.376 25.4862 56.1508 25.5701L48.5078 28.418C47.8373 28.6678 47.1291 28.1533 47.1595 27.4385L47.5062 19.2894C47.5164 19.0493 47.4398 18.8135 47.2904 18.6252L42.22 12.2363C41.7753 11.6759 42.0458 10.8433 42.735 10.6513L50.5924 8.46286C50.8239 8.39837 51.0244 8.25266 51.1573 8.05239L55.6667 1.25589Z" fill="#D85D6F"/>
<path d="M95.6667 1.25589C96.0623 0.65971 96.9377 0.65971 97.3333 1.25589L101.843 8.05239C101.976 8.25266 102.176 8.39837 102.408 8.46286L110.265 10.6513C110.954 10.8433 111.225 11.6759 110.78 12.2363L105.71 18.6253C105.56 18.8135 105.484 19.0493 105.494 19.2894L105.841 27.4385C105.871 28.1533 105.163 28.6678 104.492 28.418L96.8492 25.5701C96.624 25.4862 96.376 25.4862 96.1508 25.5701L88.5078 28.418C87.8373 28.6678 87.1291 28.1533 87.1595 27.4385L87.5062 19.2894C87.5164 19.0493 87.4398 18.8135 87.2904 18.6252L82.22 12.2363C81.7753 11.6759 82.0458 10.8433 82.735 10.6513L90.5924 8.46286C90.8239 8.39837 91.0244 8.25266 91.1573 8.05239L95.6667 1.25589Z" fill="#D85D6F"/>
</svg>
