<svg xmlns="http://www.w3.org/2000/svg"  viewBox="0 0 24 24" width="24px" height="24px"><path d="M 20.529297 2.0332031 C 20.066448 1.9800921 19.582981 2.0477661 19.123047 2.2675781 L 2.484375 10.216797 C 1.4394502 10.716391 0.9134095 11.835998 1.0136719 12.832031 C 1.1139779 13.828498 1.8523758 14.820516 2.9765625 15.101562 L 5.8066406 15.808594 C 6.9521834 16.094979 8.1632159 15.883344 9.1484375 15.234375 C 9.0190307 16.302328 9.4084109 17.420509 10.386719 18.042969 A 1.250125 1.250125 0 0 0 10.470703 18.091797 L 17.158203 21.650391 C 18.956755 22.607684 21.240087 21.392542 21.455078 19.367188 L 22.974609 4.9765625 A 1.250125 1.250125 0 0 0 22.976562 4.9648438 C 23.124132 3.4426442 21.917844 2.1925352 20.529297 2.0332031 z M 20.332031 4.484375 C 20.444647 4.4770381 20.501249 4.5625209 20.486328 4.7246094 L 18.96875 19.103516 C 18.93174 19.45216 18.641479 19.608066 18.332031 19.443359 L 11.728516 15.929688 C 11.496004 15.778693 11.462159 15.516356 11.660156 15.318359 A 1.250125 1.250125 0 0 0 11.677734 15.300781 L 16.652344 10.121094 A 1.250125 1.250125 0 0 0 15.048828 8.2207031 L 7.7832031 13.146484 C 7.7832031 13.146484 7.78125 13.146484 7.78125 13.146484 C 7.3782071 13.4145 6.8823666 13.500377 6.4121094 13.382812 L 3.5839844 12.675781 C 3.4721711 12.647828 3.506194 12.643564 3.5 12.582031 C 3.49381 12.520501 3.458332 12.522381 3.5625 12.472656 L 20.201172 4.5234375 C 20.250511 4.4998572 20.294493 4.4868206 20.332031 4.484375 z"/></svg>